<?xml version="1.0" encoding="UTF-8" standalone="no"?>
<!DOCTYPE svg PUBLIC "-//W3C//DTD SVG 20010904//EN"
              "http://www.w3.org/TR/2001/REC-SVG-20010904/DTD/svg10.dtd">

<svg xmlns="http://www.w3.org/2000/svg"
     width="13.5111in" height="8.22222in"
     viewBox="0 0 1216 740">
  <path id="Auswahl"
        fill="black" stroke="white" stroke-width="5"
        d="M 17.96,569.61
           C 25.29,563.66 30.24,549.02 38.01,543.70
             42.13,540.88 65.40,534.25 72.00,532.00
             82.87,528.28 95.18,520.69 105.00,514.58
             105.00,514.58 158.00,481.81 158.00,481.81
             158.00,481.81 177.00,474.19 177.00,474.19
             177.00,474.19 204.00,462.69 204.00,462.69
             225.01,453.05 250.47,436.53 269.00,422.63
             295.70,402.60 319.26,379.10 344.00,356.83
             356.53,345.56 377.95,325.70 393.00,319.04
             413.76,309.85 431.01,310.75 453.00,311.00
             453.00,311.00 484.00,314.73 484.00,314.73
             514.19,319.18 544.19,326.88 574.00,333.42
             587.79,336.45 613.49,341.84 627.00,342.00
             627.00,342.00 631.00,342.00 631.00,342.00
             632.72,341.96 635.10,342.02 636.56,340.98
             639.82,338.65 637.67,328.58 637.08,325.00
             634.20,307.43 629.03,288.76 628.76,271.00
             628.76,271.00 628.76,255.00 628.76,255.00
             629.70,237.61 646.44,220.82 651.21,204.00
             651.21,204.00 653.80,182.00 653.80,182.00
             657.29,163.66 664.41,136.69 672.32,120.00
             677.89,108.24 688.85,93.28 697.00,83.00
             697.00,83.00 710.09,67.00 710.09,67.00
             737.74,37.27 775.73,15.99 815.00,6.13
             826.34,3.28 842.42,0.02 854.00,0.00
             854.00,0.00 876.00,0.00 876.00,0.00
             892.66,0.20 919.09,7.91 934.00,15.37
             934.00,15.37 955.00,27.95 955.00,27.95
             963.71,33.47 975.84,41.61 982.83,49.04
             989.62,56.25 994.09,64.45 998.86,73.00
             1007.14,87.83 1012.97,97.47 1013.00,115.00
             1013.05,144.28 1012.86,155.87 1006.42,185.00
             1000.84,210.27 992.60,235.23 974.00,254.00
             977.97,254.71 983.58,255.09 986.90,257.23
             992.38,260.76 994.07,268.91 994.49,275.00
             995.92,295.96 977.66,317.62 965.40,333.00
             965.40,333.00 954.79,347.79 954.79,347.79
             950.41,352.17 942.71,354.30 937.00,356.42
             932.94,357.94 930.30,359.57 926.00,358.00
             931.95,355.48 945.59,350.98 949.91,347.89
             954.41,344.67 957.85,337.66 961.43,333.00
             970.77,320.84 981.33,309.11 987.69,295.00
             992.29,284.79 995.73,265.97 983.98,259.00
             977.88,255.50 965.60,257.06 959.00,259.00
             949.23,261.68 945.61,268.08 937.00,272.00
             938.94,267.90 940.51,266.47 944.00,263.62
             953.95,255.50 957.37,258.06 967.00,253.65
             971.69,251.50 975.43,247.80 978.83,244.00
             987.10,234.73 993.00,220.72 997.00,209.00
             1004.13,188.04 1008.48,166.06 1010.09,144.00
             1010.09,144.00 1011.00,134.00 1011.00,134.00
             1011.00,134.00 1011.00,120.00 1011.00,120.00
             1010.97,101.73 1006.75,93.58 998.31,78.00
             985.55,54.46 976.97,45.08 954.00,30.81
             938.65,21.27 928.66,14.62 911.00,9.03
             869.56,-4.10 822.23,2.52 783.00,19.86
             760.85,29.65 736.30,45.09 719.01,62.04
             711.15,69.75 699.21,84.86 692.58,94.00
             683.57,106.42 679.27,111.50 672.86,126.00
             666.18,141.12 659.38,165.61 656.42,182.00
             656.42,182.00 653.63,205.00 653.63,205.00
             652.31,210.47 648.87,214.05 647.00,222.00
             668.87,223.77 679.54,235.69 695.00,249.92
             695.00,249.92 733.00,284.05 733.00,284.05
             741.24,291.36 755.97,304.38 767.00,306.00
             757.30,301.00 741.64,285.10 732.00,277.08
             722.69,269.34 697.78,250.87 691.68,243.00
             684.11,233.22 678.77,210.92 698.00,212.09
             710.06,212.83 733.34,225.60 744.00,232.00
             744.00,232.00 766.00,245.14 766.00,245.14
             772.84,248.96 776.64,249.88 783.00,255.30
             783.00,255.30 805.00,277.00 805.00,277.00
             805.00,277.00 828.00,299.01 828.00,299.01
             833.75,304.63 840.69,312.48 847.00,317.00
             850.12,297.13 871.76,277.48 892.00,277.01
             898.53,276.86 906.93,278.11 905.03,287.00
             903.69,293.26 898.36,297.34 894.44,302.00
             888.68,308.84 885.92,313.19 884.01,322.00
             880.71,337.25 887.78,353.90 893.05,368.00
             893.05,368.00 896.96,379.00 896.96,379.00
             898.28,384.54 897.74,385.91 898.09,391.00
             898.09,391.00 899.00,401.00 899.00,401.00
             899.10,410.07 898.37,410.90 901.00,420.00
             901.00,420.00 917.95,378.00 917.95,378.00
             919.72,373.25 921.95,363.73 926.00,361.00
             926.00,361.00 924.36,370.00 924.36,370.00
             923.28,379.54 933.03,391.46 940.00,396.99
             959.74,412.63 983.74,415.30 1006.00,424.87
             1015.22,428.84 1023.19,438.01 1031.00,444.72
             1040.94,453.24 1051.77,460.70 1063.00,467.40
             1093.51,485.58 1145.08,504.78 1169.00,522.90
             1191.96,540.29 1205.55,566.57 1212.37,594.00
             1214.36,601.99 1215.99,609.73 1216.00,618.00
             1216.00,618.00 1216.00,661.00 1216.00,661.00
             1216.00,661.00 1216.00,740.00 1216.00,740.00
             1216.00,740.00 1042.00,740.00 1042.00,740.00
             1039.18,739.99 1035.90,740.35 1033.61,738.40
             1031.14,736.31 1027.42,728.20 1025.69,725.00
             1025.69,725.00 1010.28,699.00 1010.28,699.00
             1010.28,699.00 996.55,675.00 996.55,675.00
             996.55,675.00 985.89,638.00 985.89,638.00
             984.32,631.11 985.09,629.98 982.31,622.00
             982.31,622.00 970.26,597.00 970.26,597.00
             970.26,597.00 960.86,576.00 960.86,576.00
             956.96,567.18 950.18,553.00 945.19,545.00
             943.45,542.22 939.20,536.05 936.00,535.20
             932.90,534.37 927.55,539.93 925.00,541.87
             916.11,548.63 906.57,554.46 897.00,560.20
             875.37,573.18 853.00,584.93 830.00,595.30
             816.34,601.46 802.21,607.99 787.00,608.00
             787.00,608.00 794.35,645.00 794.35,645.00
             794.35,645.00 806.88,702.00 806.88,702.00
             806.88,702.00 816.00,740.00 816.00,740.00
             811.92,737.35 811.76,732.51 810.63,728.00
             810.63,728.00 804.12,701.00 804.12,701.00
             804.12,701.00 788.20,628.00 788.20,628.00
             786.42,619.26 781.61,602.23 783.39,594.00
             784.69,587.96 789.73,582.17 793.00,577.00
             793.00,577.00 755.00,596.55 755.00,596.55
             755.00,596.55 724.00,603.65 724.00,603.65
             724.00,603.65 704.00,610.00 704.00,610.00
             711.81,600.59 731.58,600.05 743.00,597.35
             755.88,594.30 768.34,586.35 780.00,580.25
             785.54,577.36 799.83,572.04 801.19,565.96
             802.83,558.61 796.53,552.72 792.04,548.00
             792.04,548.00 765.00,517.00 765.00,517.00
             761.84,513.07 755.97,504.28 751.00,503.40
             748.63,502.98 742.70,504.67 740.00,505.20
             733.21,506.51 732.30,506.20 725.00,508.43
             725.00,508.43 711.00,513.08 711.00,513.08
             702.67,515.35 693.47,513.01 685.00,513.08
             685.00,513.08 648.00,513.08 648.00,513.08
             648.00,513.08 628.00,514.00 628.00,514.00
             628.00,514.00 601.00,511.00 601.00,511.00
             601.00,511.00 586.00,512.92 586.00,512.92
             586.00,512.92 576.00,512.92 576.00,512.92
             576.00,512.92 561.00,514.83 561.00,514.83
             561.00,514.83 543.00,516.46 543.00,516.46
             543.00,516.46 515.00,524.45 515.00,524.45
             515.00,524.45 503.00,529.80 503.00,529.80
             503.00,529.80 482.00,538.00 482.00,538.00
             494.76,538.00 511.06,535.08 523.00,530.58
             533.30,526.69 549.22,518.87 560.00,518.09
             560.00,518.09 615.00,523.00 615.00,523.00
             615.00,523.00 646.00,523.00 646.00,523.00
             646.00,523.00 672.00,525.00 672.00,525.00
             672.00,525.00 688.00,526.00 688.00,526.00
             688.00,526.00 721.00,526.00 721.00,526.00
             727.40,525.92 738.95,523.99 745.00,521.92
             751.41,519.73 757.58,515.85 764.00,520.00
             750.80,522.40 738.60,527.98 725.00,528.00
             725.00,528.00 671.00,528.00 671.00,528.00
             671.00,528.00 648.00,526.00 648.00,526.00
             648.00,526.00 624.00,526.00 624.00,526.00
             624.00,526.00 612.00,525.04 612.00,525.04
             612.00,525.04 601.00,525.04 601.00,525.04
             601.00,525.04 563.00,520.75 563.00,520.75
             549.05,521.42 529.75,532.23 515.00,536.12
             515.00,536.12 484.00,541.46 484.00,541.46
             484.00,541.46 465.00,546.54 465.00,546.54
             448.20,549.76 454.51,546.16 434.00,553.00
             436.34,542.11 443.17,546.37 451.00,544.22
             451.00,544.22 461.00,540.72 461.00,540.72
             461.00,540.72 475.00,536.98 475.00,536.98
             475.00,536.98 498.00,528.58 498.00,528.58
             498.00,528.58 512.00,522.45 512.00,522.45
             512.00,522.45 539.00,514.45 539.00,514.45
             539.00,514.45 579.00,510.00 579.00,510.00
             579.00,510.00 604.00,508.04 604.00,508.04
             604.00,508.04 622.00,510.95 622.00,510.95
             635.01,512.19 632.27,511.02 643.00,510.95
             643.00,510.95 694.00,510.95 694.00,510.95
             694.00,510.95 706.00,511.66 706.00,511.66
             706.00,511.66 733.00,503.61 733.00,503.61
             736.47,502.96 746.49,501.43 747.82,497.73
             748.70,495.25 745.40,491.72 743.87,490.03
             742.72,488.76 741.19,487.09 739.58,486.57
             737.47,485.55 734.23,486.44 732.00,486.57
             732.00,486.57 717.00,487.91 717.00,487.91
             717.00,487.91 710.00,487.09 710.00,487.09
             701.30,486.49 692.31,486.73 684.00,483.53
             673.23,479.39 669.97,473.19 665.00,472.75
             665.00,472.75 644.00,477.77 644.00,477.77
             640.11,478.23 634.13,477.99 630.00,477.77
             630.00,477.77 613.00,478.99 613.00,478.99
             613.00,478.99 605.00,478.34 605.00,478.34
             605.00,478.34 598.00,478.92 598.00,478.92
             598.00,478.92 585.00,478.00 585.00,478.00
             585.00,478.00 557.00,478.00 557.00,478.00
             557.00,478.00 523.00,473.60 523.00,473.60
             517.67,472.53 509.12,470.17 504.00,470.51
             504.00,470.51 484.00,473.00 484.00,473.00
             461.88,473.26 465.51,472.83 444.00,479.28
             437.22,481.32 430.96,482.67 425.00,486.77
             425.00,486.77 412.00,497.08 412.00,497.08
             412.00,497.08 400.21,505.32 400.21,505.32
             394.85,510.60 396.82,514.92 391.00,517.00
             395.57,501.70 398.36,503.17 410.00,494.52
             415.53,490.41 420.86,485.06 427.00,481.99
             427.00,481.99 454.00,473.34 454.00,473.34
             461.90,470.88 475.55,470.04 484.00,470.00
             484.00,470.00 503.00,468.01 503.00,468.01
             512.97,467.79 517.91,470.13 527.00,471.56
             539.01,473.46 550.85,474.86 563.00,475.00
             563.00,475.00 578.00,476.00 578.00,476.00
             578.00,476.00 631.00,476.00 631.00,476.00
             631.00,476.00 658.00,472.00 658.00,472.00
             653.31,467.02 642.59,464.77 636.00,461.77
             609.90,449.90 578.97,445.07 557.00,433.74
             557.00,433.74 476.00,387.32 476.00,387.32
             476.00,387.32 428.00,373.57 428.00,373.57
             413.13,369.31 407.26,363.21 390.00,363.00
             390.00,363.00 368.00,363.00 368.00,363.00
             368.00,363.00 358.00,363.91 358.00,363.91
             353.54,364.22 344.00,364.19 340.00,365.74
             336.39,367.13 332.78,371.28 330.00,373.99
             330.00,373.99 314.00,388.72 314.00,388.72
             294.85,405.59 277.22,421.22 256.00,435.66
             238.82,447.34 220.91,458.01 202.00,466.69
             202.00,466.69 156.00,486.26 156.00,486.26
             156.00,486.26 135.00,498.95 135.00,498.95
             135.00,498.95 84.00,529.89 84.00,529.89
             72.52,535.75 59.98,538.06 48.00,542.44
             30.04,549.00 32.10,560.91 20.96,570.79
             15.23,575.87 7.38,576.93 0.00,577.00
             3.79,571.56 10.00,576.07 17.96,569.61 Z
           M 710.00,175.14
           C 710.00,175.14 749.00,192.27 749.00,192.27
             749.00,192.27 781.00,209.75 781.00,209.75
             788.89,213.70 793.61,215.62 802.00,218.33
             805.87,219.58 810.44,219.71 813.00,223.00
             794.47,222.14 771.85,208.49 756.00,199.43
             756.00,199.43 723.00,183.85 723.00,183.85
             713.81,179.90 695.00,173.48 690.00,165.00
             690.00,165.00 710.00,175.14 710.00,175.14 Z
           M 710.00,195.20
           C 710.00,195.20 755.00,219.14 755.00,219.14
             760.31,221.50 774.26,226.58 777.00,231.00
             767.80,228.90 757.49,223.49 749.00,219.25
             749.00,219.25 714.00,200.86 714.00,200.86
             706.82,196.85 693.12,189.86 688.00,184.00
             693.57,184.19 704.71,192.05 710.00,195.20 Z
           M 815.00,290.00
           C 815.00,290.00 778.00,254.53 778.00,254.53
             773.57,251.11 767.92,248.87 763.00,246.14
             763.00,246.14 740.00,232.58 740.00,232.58
             729.51,226.49 716.72,219.01 705.00,215.88
             700.20,214.60 694.50,212.78 690.28,216.51
             684.17,221.89 688.12,233.38 691.91,239.00
             694.04,242.14 697.22,245.32 700.00,247.91
             700.00,247.91 730.00,272.25 730.00,272.25
             730.00,272.25 760.00,298.33 760.00,298.33
             760.00,298.33 780.00,313.00 780.00,313.00
             774.21,313.88 770.16,311.66 765.00,309.22
             754.61,304.31 749.92,301.17 741.00,294.00
             741.00,294.00 689.00,247.84 689.00,247.84
             680.49,240.24 669.12,229.17 658.00,226.16
             655.56,225.50 653.53,225.12 651.00,225.04
             642.42,224.77 638.94,228.56 641.30,237.00
             643.28,244.10 651.39,256.09 656.01,262.00
             664.42,272.74 676.84,286.80 687.00,295.71
             687.00,295.71 742.00,341.00 742.00,341.00
             731.61,339.37 711.18,325.51 701.00,319.72
             690.96,314.01 684.15,310.59 675.00,303.20
             675.00,303.20 657.00,288.16 657.00,288.16
             655.13,286.79 651.35,283.91 649.04,283.82
             645.48,283.68 643.32,288.08 642.56,291.00
             640.67,298.22 644.64,307.22 648.79,313.00
             659.15,327.48 690.58,348.66 705.00,362.09
             709.03,365.84 718.85,374.76 719.80,380.00
             720.22,382.29 719.62,383.87 719.00,386.00
             704.24,380.75 684.26,361.64 672.00,351.13
             664.55,344.75 656.58,337.73 647.00,335.00
             647.10,346.38 653.74,356.45 659.40,366.00
             668.86,381.97 678.30,396.84 690.43,411.00
             690.43,411.00 700.57,422.00 700.57,422.00
             709.23,432.11 717.88,444.47 724.58,456.00
             724.58,456.00 738.53,480.00 738.53,480.00
             738.53,480.00 750.34,494.00 750.34,494.00
             750.34,494.00 779.15,530.00 779.15,530.00
             784.46,536.02 799.48,550.93 801.86,557.00
             805.13,565.37 804.00,591.71 804.00,602.00
             812.73,601.21 826.71,594.10 835.00,590.31
             858.72,579.45 881.76,566.84 904.00,553.19
             904.00,553.19 924.00,539.58 924.00,539.58
             926.87,537.49 931.00,534.76 931.58,531.00
             932.14,527.39 927.47,519.44 925.75,516.00
             925.75,516.00 908.86,481.00 908.86,481.00
             899.19,459.11 899.46,431.65 897.17,408.00
             896.25,398.56 896.38,385.73 893.79,377.00
             889.19,361.50 881.20,349.29 881.00,332.00
             880.88,321.25 882.42,313.92 888.93,305.00
             892.68,299.86 900.10,293.66 902.16,288.00
             904.88,280.50 897.80,278.74 892.00,279.09
             876.85,280.02 861.97,291.32 854.45,304.00
             852.30,307.63 848.29,315.80 849.64,320.00
             851.15,324.73 859.65,331.67 864.00,334.00
             864.00,334.00 863.00,337.00 863.00,337.00
             863.00,337.00 815.00,290.00 815.00,290.00 Z
           M 637.00,237.00
           C 629.93,249.42 630.94,252.32 631.00,266.00
             631.00,266.00 632.06,276.00 632.06,276.00
             632.06,276.00 632.06,287.00 632.06,287.00
             632.06,287.00 637.58,314.00 637.58,314.00
             637.58,314.00 641.41,339.00 641.41,339.00
             641.41,339.00 643.09,365.00 643.09,365.00
             644.62,387.37 646.68,421.22 653.34,442.00
             657.86,456.10 667.94,474.24 682.00,480.47
             696.48,486.90 721.36,485.27 737.00,484.00
             735.47,477.56 727.91,464.10 723.53,459.09
             717.94,452.69 696.01,436.73 688.00,432.49
             681.85,429.23 670.70,427.15 667.00,424.00
             683.17,427.04 688.54,430.26 702.00,439.72
             707.72,443.74 712.80,448.73 719.00,452.00
             715.40,440.68 698.38,421.93 690.09,413.00
             679.76,401.88 663.90,377.58 656.15,364.00
             649.80,352.88 645.01,346.07 645.00,333.00
             656.22,334.62 664.71,342.85 673.00,350.00
             685.83,361.07 703.54,377.71 719.00,384.00
             716.90,372.81 705.42,364.32 697.00,357.42
             683.17,346.09 654.39,324.91 645.39,311.00
             641.29,304.68 638.09,295.25 641.57,288.00
             642.89,285.25 645.65,281.73 649.00,281.73
             653.43,281.72 665.39,292.84 669.00,296.05
             676.90,303.06 682.72,307.59 692.00,312.70
             692.00,312.70 727.00,332.00 727.00,332.00
             721.30,324.11 697.97,307.13 689.00,299.56
             671.76,285.02 647.98,257.85 639.00,237.00
             639.00,237.00 637.00,237.00 637.00,237.00 Z
           M 867.00,240.75
           C 872.78,237.86 876.40,235.28 883.00,237.00
             883.00,237.00 859.00,248.45 859.00,248.45
             859.00,248.45 835.00,265.00 835.00,265.00
             840.52,254.72 856.64,245.94 867.00,240.75 Z
           M 858.00,268.42
           C 867.94,259.84 866.42,259.03 879.00,254.00
             885.04,251.58 892.47,247.44 899.00,250.00
             890.71,253.87 880.63,254.42 871.00,261.30
             871.00,261.30 846.52,283.17 846.52,283.17
             841.63,288.79 841.50,292.88 835.00,298.00
             838.25,284.99 848.35,276.76 858.00,268.42 Z
           M 934.00,340.77
           C 932.69,340.01 931.20,338.90 930.15,337.81
             918.63,326.00 944.74,320.95 944.55,311.00
             944.50,308.24 941.45,305.12 939.82,303.00
             936.75,299.03 933.67,294.27 934.37,289.00
             936.12,275.69 961.47,268.18 973.00,267.32
             980.10,266.80 984.62,270.67 982.35,278.00
             979.90,285.89 972.76,285.97 969.60,290.21
             967.58,292.91 967.97,299.20 967.19,303.00
             965.73,310.15 956.54,320.93 949.00,321.00
             954.43,313.58 960.47,312.12 963.43,306.00
             965.87,300.96 965.29,290.39 967.74,287.49
             969.63,285.26 981.67,280.91 980.18,274.06
             979.00,268.65 970.81,270.03 967.00,270.89
             957.79,272.97 941.30,278.36 937.74,288.00
             933.78,298.76 950.12,303.14 947.34,313.00
             945.68,318.87 939.51,322.58 935.02,326.13
             932.95,327.76 929.85,329.91 930.60,332.98
             931.36,336.04 938.24,340.03 941.00,343.00
             938.22,342.55 936.50,342.24 934.00,340.77 Z
           M 412.00,421.00
           C 410.01,428.03 397.80,456.78 393.94,463.00
             388.01,472.52 381.09,476.93 377.36,488.00
             377.36,488.00 373.98,500.00 373.98,500.00
             373.98,500.00 365.33,525.00 365.33,525.00
             365.33,525.00 355.94,553.00 355.94,553.00
             355.94,553.00 336.34,601.00 336.34,601.00
             336.34,601.00 332.28,616.00 332.28,616.00
             332.28,616.00 325.88,637.00 325.88,637.00
             325.88,637.00 323.07,650.00 323.07,650.00
             323.07,650.00 318.77,661.00 318.77,661.00
             318.77,661.00 315.31,674.00 315.31,674.00
             311.35,685.33 294.15,721.19 288.00,732.00
             303.78,732.00 300.80,729.23 314.00,725.03
             325.94,721.23 338.57,718.68 349.00,711.21
             349.00,711.21 362.67,698.91 362.67,698.91
             365.79,695.39 365.67,692.66 370.00,691.00
             368.17,698.29 365.18,700.81 360.00,706.00
             342.46,723.54 330.68,721.02 311.00,729.28
             311.00,729.28 301.00,733.38 301.00,733.38
             301.00,733.38 291.10,735.56 291.10,735.56
             285.94,737.80 289.12,739.74 281.00,740.00
             281.00,740.00 299.25,703.00 299.25,703.00
             304.15,693.19 311.54,678.50 314.00,668.00
             302.79,679.11 290.40,686.12 275.00,689.76
             261.82,692.88 249.68,692.08 237.00,696.69
             230.09,699.21 214.72,709.53 209.00,714.32
             204.91,717.76 202.90,721.10 197.99,723.62
             185.79,729.89 170.66,725.22 160.00,727.68
             148.43,730.35 147.60,737.78 141.00,740.00
             144.76,728.98 157.98,723.50 169.00,724.32
             178.80,725.06 187.77,725.95 196.94,721.09
             203.47,717.62 198.90,714.33 203.00,708.00
             203.00,708.00 203.00,714.00 203.00,714.00
             215.77,706.83 226.59,695.71 241.00,691.63
             241.00,691.63 262.00,689.57 262.00,689.57
             280.06,686.98 296.65,680.96 309.71,667.72
             318.98,658.32 319.91,648.86 322.89,637.00
             322.89,637.00 335.46,594.00 335.46,594.00
             335.46,594.00 347.43,565.00 347.43,565.00
             347.43,565.00 355.00,547.00 355.00,547.00
             355.00,547.00 370.33,502.00 370.33,502.00
             370.33,502.00 376.35,482.00 376.35,482.00
             376.35,482.00 392.55,459.00 392.55,459.00
             398.86,448.40 404.30,432.76 409.00,421.00
             409.00,421.00 412.00,421.00 412.00,421.00 Z
           M 227.74,462.09
           C 229.06,458.91 232.36,457.20 235.00,455.25
             238.22,452.86 240.23,450.74 244.00,449.11
             246.34,448.09 255.37,445.77 258.00,445.32
             258.00,445.32 262.95,444.69 262.95,444.69
             268.59,443.10 266.71,437.43 275.00,434.80
             281.62,432.71 300.48,432.08 308.00,432.00
             308.00,432.00 321.00,431.02 321.00,431.02
             321.00,431.02 340.00,431.02 340.00,431.02
             340.00,431.02 344.00,431.02 344.00,431.02
             353.65,431.90 348.00,440.18 348.34,446.00
             348.47,450.22 351.48,454.83 348.34,458.72
             345.25,462.71 334.81,462.99 330.00,463.00
             330.00,463.00 286.00,463.00 286.00,463.00
             277.95,463.04 277.23,463.94 270.00,467.00
             270.47,465.62 270.39,464.98 271.59,463.84
             274.87,460.73 288.33,460.01 293.00,460.09
             293.00,460.09 307.00,460.09 307.00,460.09
             318.70,460.02 318.19,461.94 332.00,460.09
             335.79,459.83 342.70,460.05 345.59,457.28
             347.99,454.98 346.50,451.81 346.18,449.00
             345.58,443.62 346.88,438.36 347.00,433.04
             347.00,433.04 331.00,433.04 331.00,433.04
             331.00,433.04 319.00,434.00 319.00,434.00
             319.00,434.00 298.00,434.91 298.00,434.91
             291.86,435.33 280.29,435.18 275.02,438.14
             269.23,441.38 268.00,448.53 264.45,454.00
             259.84,461.12 252.92,466.97 245.00,470.00
             251.78,460.61 259.01,459.21 265.00,447.00
             265.00,447.00 246.00,451.57 246.00,451.57
             246.00,451.57 238.00,457.11 238.00,457.11
             238.00,457.11 231.01,463.18 231.01,463.18
             231.01,463.18 229.00,472.00 229.00,472.00
             237.75,472.00 248.63,469.80 255.00,477.00
             255.00,477.00 246.00,475.18 246.00,475.18
             246.00,475.18 227.00,474.00 227.00,474.00
             227.00,471.06 226.71,464.57 227.74,462.09 Z
           M 392.35,490.09
           C 395.23,485.64 405.29,479.79 410.00,475.86
             422.22,465.64 434.69,455.40 450.00,450.10
             467.10,444.18 491.72,446.03 510.00,446.00
             527.29,445.97 524.42,441.00 543.00,441.00
             543.00,441.00 543.00,443.00 543.00,443.00
             529.95,443.29 528.99,447.98 515.00,448.00
             496.00,448.03 469.73,446.29 452.00,452.55
             437.62,457.62 425.36,466.98 414.00,476.84
             414.00,476.84 396.39,490.30 396.39,490.30
             389.87,497.42 389.00,507.89 389.00,517.00
             389.00,517.00 385.00,517.00 385.00,517.00
             387.90,506.95 386.23,499.57 392.35,490.09 Z
           M 719.00,452.00
           C 719.00,452.00 720.00,453.00 720.00,453.00
             720.00,453.00 720.00,452.00 720.00,452.00
             720.00,452.00 719.00,452.00 719.00,452.00 Z
           M 687.00,466.00
           C 679.41,465.09 681.07,461.97 683.00,456.00
             687.72,458.66 686.98,461.01 687.00,466.00 Z
           M 185.00,511.77
           C 193.10,509.33 204.39,509.90 213.00,510.00
             213.00,510.00 232.00,511.83 232.00,511.83
             232.00,511.83 265.00,514.00 265.00,514.00
             265.00,514.00 278.00,515.00 278.00,515.00
             286.84,515.10 294.30,514.45 303.00,517.00
             298.70,522.50 290.72,527.59 285.00,531.87
             277.79,537.27 271.27,541.96 263.00,545.69
             253.97,549.76 240.83,552.43 231.00,554.40
             219.56,556.69 194.33,559.98 183.00,560.00
             183.00,560.00 160.00,561.00 160.00,561.00
             160.00,561.00 143.00,560.00 143.00,560.00
             133.83,559.89 114.16,557.53 107.00,552.00
             116.47,552.44 131.42,557.80 149.00,558.00
             168.13,558.21 170.02,551.98 185.00,546.70
             185.00,546.70 214.00,540.00 214.00,540.00
             212.19,545.03 206.75,544.86 202.00,545.80
             195.26,547.14 189.48,547.73 183.00,550.46
             183.00,550.46 170.00,558.00 170.00,558.00
             188.61,558.00 212.71,555.44 231.00,551.80
             240.16,549.98 254.72,546.55 263.00,542.68
             270.66,539.09 291.20,523.84 298.00,518.00
             298.00,518.00 275.00,517.00 275.00,517.00
             275.00,517.00 260.00,516.09 260.00,516.09
             260.00,516.09 237.00,514.83 237.00,514.83
             237.00,514.83 208.00,512.00 208.00,512.00
             197.54,511.88 189.68,512.12 180.00,516.79
             173.52,519.91 168.72,526.42 163.00,525.00
             171.14,519.25 174.69,514.88 185.00,511.77 Z
           M 481.00,538.00
           C 481.00,538.00 482.00,539.00 482.00,539.00
             482.00,539.00 482.00,538.00 482.00,538.00
             482.00,538.00 481.00,538.00 481.00,538.00 Z
           M 458.00,545.00
           C 464.15,544.17 473.99,542.56 479.00,539.00
             473.19,539.82 462.73,541.79 458.00,545.00 Z
           M 633.00,577.55
           C 633.00,577.55 664.00,569.45 664.00,569.45
             664.00,569.45 686.00,565.33 686.00,565.33
             686.00,565.33 700.00,559.35 700.00,559.35
             700.00,559.35 741.00,549.00 741.00,549.00
             738.74,552.35 735.74,552.82 732.00,553.98
             732.00,553.98 711.00,559.01 711.00,559.01
             698.14,562.58 697.14,565.19 690.00,567.25
             690.00,567.25 663.00,572.45 663.00,572.45
             663.00,572.45 646.00,577.29 646.00,577.29
             646.00,577.29 637.00,579.35 637.00,579.35
             629.21,581.38 622.33,588.61 614.00,587.00
             614.00,587.00 633.00,577.55 633.00,577.55 Z
           M 168.00,558.00
           C 168.00,558.00 169.00,559.00 169.00,559.00
             169.00,559.00 169.00,558.00 169.00,558.00
             169.00,558.00 168.00,558.00 168.00,558.00 Z
           M 785.63,594.00
           C 784.38,598.43 785.14,603.64 790.02,605.39
             793.14,606.51 798.70,604.66 802.00,604.00
             802.00,604.00 802.00,573.00 802.00,573.00
             795.66,576.14 787.58,587.11 785.63,594.00 Z
           M 16.00,586.00
           C 30.27,586.19 39.70,598.70 49.00,608.00
             49.00,608.00 48.00,596.00 48.00,596.00
             60.00,599.50 68.95,610.86 75.41,621.00
             90.33,644.42 94.05,659.75 104.43,684.00
             104.43,684.00 120.00,714.00 120.00,714.00
             110.18,706.33 101.76,684.79 97.19,673.00
             87.55,648.12 74.24,614.76 51.00,600.00
             51.00,600.00 52.00,614.00 52.00,614.00
             44.84,610.60 37.91,599.45 30.00,593.79
             19.21,586.06 12.02,588.03 0.00,589.00
             3.12,584.35 10.97,585.94 16.00,586.00 Z
           M 70.00,683.00
           C 76.40,691.08 88.22,707.06 92.63,716.00
             92.63,716.00 101.00,740.00 101.00,740.00
             94.30,737.61 93.63,724.01 90.51,718.00
             85.68,708.72 72.21,690.41 65.39,682.00
             60.43,675.89 54.24,670.11 51.00,663.00
             58.90,667.63 64.38,675.91 70.00,683.00 Z" />
</svg>
